# xmcd CD database file
#
# Track frame offsets:
#	150
#	13376
#	23701
#	38698
#	50248
#	64196
#	76158
#	88423
#	98445
#	113841
#	127136
#	144886
#	156563
#	167956
#	179708
#	193967
#
# Disc length: 2738 seconds
#
# Revision: 3
# Processed by: cddbd v1.5.1PL2 Copyright (c) Steve Scherf et al.
# Submitted via: CDex 1.70beta2
#
DISCID=e80ab010
DTITLE=Various Artist - Ladies Of Country
DYEAR=2000
DGENRE=Country
TTITLE0=Lynn Anderson - Rose Garden
TTITLE1=Connie Smith - Once A Day
TTITLE2=Jeannie C. Riley - Harper Valley P.T.A.
TTITLE3=Sammi Smith - Help Me Make It Through The Night
TTITLE4=Barbara Fairchild - Teddy Bear Song
TTITLE5=Donna Fargo - Funny Face
TTITLE6=Jeanne Pruett - Satin Sheets
TTITLE7=Lynn Anderson - What A Man, My Man Is
TTITLE8=Melba Montgomery - No Charge
TTITLE9=Margo Smith - Don't Break The Heart That Loves You
TTITLE10=Judy Rodman - Until I Met You
TTITLE11=Donna Fargo - The Happiest Girl In The Whole U.S.A.
TTITLE12=Kitty Wells - It Wasn't God Who Made Honky Tonk Angels
TTITLE13=Lynn Anderson - You're My Man
TTITLE14=Margo Smith - It Only Hurts For A Little While
TTITLE15=Donna Fargo - Superman
EXTD=YEAR: 2000
EXTT0=
EXTT1=
EXTT2=
EXTT3=
EXTT4=
EXTT5=
EXTT6=
EXTT7=
EXTT8=
EXTT9=
EXTT10=
EXTT11=
EXTT12=
EXTT13=
EXTT14=
EXTT15=
PLAYORDER=
